<mxfile host="app.diagrams.net" modified="2023-03-25T10:24:45.868Z" agent="5.0 (Windows NT 10.0; Win64; x64) AppleWebKit/537.36 (KHTML, like Gecko) Chrome/111.0.0.0 Safari/537.36" etag="Ro1AZd4xXkRgHSURTEiN" version="20.8.23" type="github">
  <diagram name="‫עמוד-1‬" id="669H-x8ZkATwqJho2Dp_">
    <mxGraphModel dx="889" dy="959" grid="0" gridSize="10" guides="1" tooltips="1" connect="1" arrows="1" fold="1" page="1" pageScale="1" pageWidth="850" pageHeight="1100" background="#4D4D4D" math="0" shadow="0">
      <root>
        <mxCell id="0" />
        <mxCell id="1" parent="0" />
        <mxCell id="kBXu6ObaHWG-ue7Rh79I-1" value="Back-end" style="swimlane;whiteSpace=wrap;html=1;strokeColor=#FFFFFF;strokeWidth=5;" parent="1" vertex="1">
          <mxGeometry x="360" y="40" width="480" height="560" as="geometry" />
        </mxCell>
        <mxCell id="kBXu6ObaHWG-ue7Rh79I-11" value="User Schema" style="swimlane;whiteSpace=wrap;html=1;strokeColor=#FFFFFF;strokeWidth=5;" parent="kBXu6ObaHWG-ue7Rh79I-1" vertex="1">
          <mxGeometry x="20" y="40" width="427" height="214" as="geometry" />
        </mxCell>
        <mxCell id="kBXu6ObaHWG-ue7Rh79I-40" value="&lt;font style=&quot;font-size: 23px;&quot;&gt;id&lt;br&gt;name&lt;br&gt;cash&lt;br&gt;credit&lt;/font&gt;" style="rounded=1;whiteSpace=wrap;html=1;strokeColor=#FFFFFF;strokeWidth=2;fontSize=14;fontColor=#FFFFFF;fillColor=#666666;" parent="kBXu6ObaHWG-ue7Rh79I-11" vertex="1">
          <mxGeometry x="20" y="40" width="386" height="150" as="geometry" />
        </mxCell>
        <mxCell id="kBXu6ObaHWG-ue7Rh79I-15" value="controllers" style="swimlane;fontStyle=5;childLayout=stackLayout;horizontal=1;startSize=26;fillColor=none;horizontalStack=0;resizeParent=1;resizeParentMax=0;resizeLast=0;collapsible=1;marginBottom=0;strokeColor=#FFFFFF;strokeWidth=5;fontColor=#FFFFFF;fontSize=14;" parent="kBXu6ObaHWG-ue7Rh79I-1" vertex="1">
          <mxGeometry x="330" y="280" width="140" height="52" as="geometry" />
        </mxCell>
        <mxCell id="kBXu6ObaHWG-ue7Rh79I-16" value="userController.js" style="text;strokeColor=none;fillColor=none;align=left;verticalAlign=top;spacingLeft=4;spacingRight=4;overflow=hidden;rotatable=0;points=[[0,0.5],[1,0.5]];portConstraint=eastwest;fontColor=#FFFFFF;fontSize=14;" parent="kBXu6ObaHWG-ue7Rh79I-15" vertex="1">
          <mxGeometry y="26" width="140" height="26" as="geometry" />
        </mxCell>
        <mxCell id="kBXu6ObaHWG-ue7Rh79I-20" value="models" style="swimlane;fontStyle=5;childLayout=stackLayout;horizontal=1;startSize=26;fillColor=none;horizontalStack=0;resizeParent=1;resizeParentMax=0;resizeLast=0;collapsible=1;marginBottom=0;strokeColor=#FFFFFF;strokeWidth=5;fontColor=#FFFFFF;fontSize=14;" parent="kBXu6ObaHWG-ue7Rh79I-1" vertex="1">
          <mxGeometry x="170" y="280" width="140" height="52" as="geometry" />
        </mxCell>
        <mxCell id="kBXu6ObaHWG-ue7Rh79I-21" value="userSchema.js" style="text;strokeColor=none;fillColor=none;align=left;verticalAlign=top;spacingLeft=4;spacingRight=4;overflow=hidden;rotatable=0;points=[[0,0.5],[1,0.5]];portConstraint=eastwest;fontColor=#FFFFFF;fontSize=14;" parent="kBXu6ObaHWG-ue7Rh79I-20" vertex="1">
          <mxGeometry y="26" width="140" height="26" as="geometry" />
        </mxCell>
        <mxCell id="kBXu6ObaHWG-ue7Rh79I-28" value="config" style="swimlane;fontStyle=5;childLayout=stackLayout;horizontal=1;startSize=26;fillColor=none;horizontalStack=0;resizeParent=1;resizeParentMax=0;resizeLast=0;collapsible=1;marginBottom=0;strokeColor=#FFFFFF;strokeWidth=5;fontColor=#FFFFFF;fontSize=14;" parent="kBXu6ObaHWG-ue7Rh79I-1" vertex="1">
          <mxGeometry x="10" y="280" width="140" height="78" as="geometry" />
        </mxCell>
        <mxCell id="kBXu6ObaHWG-ue7Rh79I-29" value="db.js" style="text;strokeColor=none;fillColor=none;align=left;verticalAlign=top;spacingLeft=4;spacingRight=4;overflow=hidden;rotatable=0;points=[[0,0.5],[1,0.5]];portConstraint=eastwest;fontColor=#FFFFFF;fontSize=14;" parent="kBXu6ObaHWG-ue7Rh79I-28" vertex="1">
          <mxGeometry y="26" width="140" height="26" as="geometry" />
        </mxCell>
        <mxCell id="kBXu6ObaHWG-ue7Rh79I-30" value="config.env" style="text;strokeColor=none;fillColor=none;align=left;verticalAlign=top;spacingLeft=4;spacingRight=4;overflow=hidden;rotatable=0;points=[[0,0.5],[1,0.5]];portConstraint=eastwest;fontColor=#FFFFFF;fontSize=14;" parent="kBXu6ObaHWG-ue7Rh79I-28" vertex="1">
          <mxGeometry y="52" width="140" height="26" as="geometry" />
        </mxCell>
        <mxCell id="kBXu6ObaHWG-ue7Rh79I-35" value="routes" style="swimlane;fontStyle=5;childLayout=stackLayout;horizontal=1;startSize=26;fillColor=none;horizontalStack=0;resizeParent=1;resizeParentMax=0;resizeLast=0;collapsible=1;marginBottom=0;strokeColor=#FFFFFF;strokeWidth=5;fontColor=#FFFFFF;fontSize=14;" parent="kBXu6ObaHWG-ue7Rh79I-1" vertex="1">
          <mxGeometry x="10" y="380" width="140" height="52" as="geometry" />
        </mxCell>
        <mxCell id="kBXu6ObaHWG-ue7Rh79I-36" value="userRoutes.js" style="text;strokeColor=none;fillColor=none;align=left;verticalAlign=top;spacingLeft=4;spacingRight=4;overflow=hidden;rotatable=0;points=[[0,0.5],[1,0.5]];portConstraint=eastwest;fontColor=#FFFFFF;fontSize=14;" parent="kBXu6ObaHWG-ue7Rh79I-35" vertex="1">
          <mxGeometry y="26" width="140" height="26" as="geometry" />
        </mxCell>
        <mxCell id="kBXu6ObaHWG-ue7Rh79I-32" value="middleware" style="swimlane;fontStyle=5;childLayout=stackLayout;horizontal=1;startSize=26;fillColor=none;horizontalStack=0;resizeParent=1;resizeParentMax=0;resizeLast=0;collapsible=1;marginBottom=0;strokeColor=#FFFFFF;strokeWidth=5;fontColor=#FFFFFF;fontSize=14;" parent="kBXu6ObaHWG-ue7Rh79I-1" vertex="1">
          <mxGeometry x="170" y="380" width="140" height="90" as="geometry" />
        </mxCell>
        <mxCell id="3fp7BBuDPAKR7gcL9m7G-16" value="utils" style="swimlane;fontStyle=5;childLayout=stackLayout;horizontal=1;startSize=26;fillColor=none;horizontalStack=0;resizeParent=1;resizeParentMax=0;resizeLast=0;collapsible=1;marginBottom=0;strokeColor=#FFFFFF;strokeWidth=5;fontColor=#FFFFFF;fontSize=14;" vertex="1" parent="kBXu6ObaHWG-ue7Rh79I-1">
          <mxGeometry x="330" y="380" width="140" height="52" as="geometry" />
        </mxCell>
        <mxCell id="3fp7BBuDPAKR7gcL9m7G-17" value="ErrorResponse.js" style="text;strokeColor=none;fillColor=none;align=left;verticalAlign=top;spacingLeft=4;spacingRight=4;overflow=hidden;rotatable=0;points=[[0,0.5],[1,0.5]];portConstraint=eastwest;fontColor=#FFFFFF;fontSize=14;" vertex="1" parent="3fp7BBuDPAKR7gcL9m7G-16">
          <mxGeometry y="26" width="140" height="26" as="geometry" />
        </mxCell>
        <mxCell id="kBXu6ObaHWG-ue7Rh79I-2" value="Front-end" style="swimlane;whiteSpace=wrap;html=1;strokeColor=#FFFFFF;strokeWidth=5;" parent="1" vertex="1">
          <mxGeometry x="40" y="180" width="304" height="276" as="geometry" />
        </mxCell>
        <mxCell id="kBXu6ObaHWG-ue7Rh79I-4" value="" style="swimlane;startSize=0;strokeColor=#FFFFFF;strokeWidth=5;" parent="kBXu6ObaHWG-ue7Rh79I-2" vertex="1">
          <mxGeometry x="16" y="80" width="273" height="143" as="geometry" />
        </mxCell>
        <mxCell id="kBXu6ObaHWG-ue7Rh79I-5" value="" style="rounded=1;whiteSpace=wrap;html=1;strokeColor=#FFFFFF;strokeWidth=5;" parent="kBXu6ObaHWG-ue7Rh79I-4" vertex="1">
          <mxGeometry x="31" y="16" width="220" height="19" as="geometry" />
        </mxCell>
        <mxCell id="kBXu6ObaHWG-ue7Rh79I-23" value="" style="rounded=1;whiteSpace=wrap;html=1;strokeColor=#FFFFFF;strokeWidth=5;" parent="kBXu6ObaHWG-ue7Rh79I-4" vertex="1">
          <mxGeometry x="31" y="45" width="221" height="20" as="geometry" />
        </mxCell>
        <mxCell id="kBXu6ObaHWG-ue7Rh79I-24" value="" style="rounded=1;whiteSpace=wrap;html=1;strokeColor=#FFFFFF;strokeWidth=5;" parent="kBXu6ObaHWG-ue7Rh79I-4" vertex="1">
          <mxGeometry x="31" y="75" width="221" height="20" as="geometry" />
        </mxCell>
        <mxCell id="kBXu6ObaHWG-ue7Rh79I-25" value="" style="rounded=1;whiteSpace=wrap;html=1;strokeColor=#FFFFFF;strokeWidth=5;" parent="kBXu6ObaHWG-ue7Rh79I-4" vertex="1">
          <mxGeometry x="31" y="105" width="220" height="20" as="geometry" />
        </mxCell>
        <mxCell id="3fp7BBuDPAKR7gcL9m7G-2" value="" style="rounded=1;whiteSpace=wrap;html=1;arcSize=50;" vertex="1" parent="kBXu6ObaHWG-ue7Rh79I-4">
          <mxGeometry x="89" y="20" width="37" height="11" as="geometry" />
        </mxCell>
        <mxCell id="3fp7BBuDPAKR7gcL9m7G-3" value="" style="rounded=1;whiteSpace=wrap;html=1;arcSize=50;" vertex="1" parent="kBXu6ObaHWG-ue7Rh79I-4">
          <mxGeometry x="136" y="20" width="37" height="11" as="geometry" />
        </mxCell>
        <mxCell id="3fp7BBuDPAKR7gcL9m7G-4" value="" style="rounded=1;whiteSpace=wrap;html=1;arcSize=50;" vertex="1" parent="kBXu6ObaHWG-ue7Rh79I-4">
          <mxGeometry x="185" y="20" width="37" height="11" as="geometry" />
        </mxCell>
        <mxCell id="3fp7BBuDPAKR7gcL9m7G-5" value="" style="rounded=1;whiteSpace=wrap;html=1;arcSize=50;" vertex="1" parent="1">
          <mxGeometry x="145" y="309" width="37" height="11" as="geometry" />
        </mxCell>
        <mxCell id="3fp7BBuDPAKR7gcL9m7G-6" value="" style="rounded=1;whiteSpace=wrap;html=1;arcSize=50;" vertex="1" parent="1">
          <mxGeometry x="192" y="309" width="37" height="11" as="geometry" />
        </mxCell>
        <mxCell id="3fp7BBuDPAKR7gcL9m7G-7" value="" style="rounded=1;whiteSpace=wrap;html=1;arcSize=50;" vertex="1" parent="1">
          <mxGeometry x="241" y="309" width="37" height="11" as="geometry" />
        </mxCell>
        <mxCell id="3fp7BBuDPAKR7gcL9m7G-8" value="" style="rounded=1;whiteSpace=wrap;html=1;arcSize=50;" vertex="1" parent="1">
          <mxGeometry x="146" y="339" width="37" height="11" as="geometry" />
        </mxCell>
        <mxCell id="3fp7BBuDPAKR7gcL9m7G-9" value="" style="rounded=1;whiteSpace=wrap;html=1;arcSize=50;" vertex="1" parent="1">
          <mxGeometry x="193" y="339" width="37" height="11" as="geometry" />
        </mxCell>
        <mxCell id="3fp7BBuDPAKR7gcL9m7G-10" value="" style="rounded=1;whiteSpace=wrap;html=1;arcSize=50;" vertex="1" parent="1">
          <mxGeometry x="242" y="339" width="37" height="11" as="geometry" />
        </mxCell>
        <mxCell id="3fp7BBuDPAKR7gcL9m7G-11" value="" style="rounded=1;whiteSpace=wrap;html=1;arcSize=50;" vertex="1" parent="1">
          <mxGeometry x="146" y="368" width="37" height="11" as="geometry" />
        </mxCell>
        <mxCell id="3fp7BBuDPAKR7gcL9m7G-12" value="" style="rounded=1;whiteSpace=wrap;html=1;arcSize=50;" vertex="1" parent="1">
          <mxGeometry x="193" y="368" width="37" height="11" as="geometry" />
        </mxCell>
        <mxCell id="3fp7BBuDPAKR7gcL9m7G-13" value="" style="rounded=1;whiteSpace=wrap;html=1;arcSize=50;" vertex="1" parent="1">
          <mxGeometry x="242" y="368" width="37" height="11" as="geometry" />
        </mxCell>
        <mxCell id="3fp7BBuDPAKR7gcL9m7G-14" value="&lt;font color=&quot;#ffffff&quot; style=&quot;font-size: 14px;&quot;&gt;errorHandler.js&lt;br&gt;asyncHandler.js&lt;/font&gt;" style="text;html=1;align=center;verticalAlign=middle;resizable=0;points=[];autosize=1;strokeColor=none;fillColor=none;fontSize=23;" vertex="1" parent="1">
          <mxGeometry x="544" y="440" width="117" height="67" as="geometry" />
        </mxCell>
      </root>
    </mxGraphModel>
  </diagram>
</mxfile>
